<svg xmlns="http://www.w3.org/2000/svg" width="32" height="32" viewBox="0 0 32 32" version="1.1"><defs><clipPath id="a"><path d="M.008 0h31.984v31.988H.008Zm0 0"/></clipPath><clipPath id="b"><path d="M16 0C7.168 0 .008 7.16.008 15.992c0 8.836 7.16 15.996 15.992 15.996s15.992-7.16 15.992-15.996C31.992 7.16 24.832 0 16 0Zm0 0"/></clipPath><clipPath id="c"><path d="M2.41 2.402h27.18v27.184H2.41Zm0 0"/></clipPath><clipPath id="d"><path d="M16 2.402c-7.508 0-13.59 6.086-13.59 13.59C2.41 23.5 8.492 29.586 16 29.586S29.59 23.5 29.59 15.992c0-7.504-6.082-13.59-13.59-13.59Zm0 0"/></clipPath></defs><g clip-path="url(#a)"><g clip-path="url(#b)"><path fill="#fec901" d="M.008 0h31.984v31.988H.008Zm0 0"/></g></g><g clip-path="url(#c)"><g clip-path="url(#d)"><path fill="#ffd500" d="M2.41 2.402h27.18v27.184H2.41Zm0 0"/></g></g><path fill="#f60002" d="M8.262 12.82c.027-.218.09-.43.168-.636a4.36 4.36 0 0 1 .715-1.204c.199-.242.421-.46.671-.656.164-.125.344-.234.528-.328.265-.14.543-.258.832-.344.25-.074.504-.113.762-.125a28.382 28.382 0 0 1 1.527-.03l2.797-.005c.07 0 .14 0 .21.004-.054.012-.1.04-.152.066-.023.016-.039.036-.039.063.004.074-.008.148.012.223a.743.743 0 0 1 0 .246.854.854 0 0 0-.012.14c0 .047 0 .09-.011.137-.008.031 0 .063 0 .094.003.035.011.07.003.101-.003.036-.007.067 0 .102a.18.18 0 0 1 0 .102.286.286 0 0 0-.003.14c.003.02.007.04.003.055a.746.746 0 0 0-.011.308c.004.016 0 .036 0 .055v.48c0 .032 0 .063.008.094s.007.063-.004.094c-.004.016-.004.035-.004.055.004.129-.012.258.011.386 0 .008 0 .016-.003.028 0 .05-.012.101 0 .148.015.055-.016.106.007.157.02.05-.015.105-.011.16.007.05.02.101.011.156-.004.02-.015.039-.011.055.02.066.007.129 0 .195-.004.016.004.035.007.055a.317.317 0 0 1 0 .148c-.003.023-.003.043-.003.066-.004.02 0 .043-.004.063-.004.047-.008.094.007.14a.187.187 0 0 1-.003.114.175.175 0 0 0 .003.11.187.187 0 0 1 0 .113.151.151 0 0 0 0 .101.2.2 0 0 1 0 .117.35.35 0 0 0-.003.168.12.12 0 0 1 0 .074c-.004.02-.008.04-.008.06v.272c0 .086-.004.176.004.262.004.09-.036.18-.004.27.004.011 0 .027-.004.039a.35.35 0 0 0-.008.156.095.095 0 0 1 0 .047c0 .043-.004.086-.008.133v.62c0 .102.016.204.004.31-.004.023 0 .05.004.074.004.039.012.082.012.12.008.157-.012.313.011.47 0 .011 0 .019-.003.03-.024.087.023.177 0 .266l.003.012c0 .035.008.074.008.11l-.004.624h-.023c-.102 0-.192.012-.281.016-.168.008-.34.004-.508.004-.012 0-.02 0-.028-.004-.113-.023-.226-.012-.34-.016-.03 0-.062 0-.093-.003l-.168-.016h-.086l-.39-.055c-.153-.02-.31-.035-.465-.062-.2-.035-.399-.074-.598-.121-.215-.047-.426-.106-.64-.16a7.162 7.162 0 0 1-.27-.086c-.07-.028-.145-.059-.219-.082a9.663 9.663 0 0 1-.625-.266c-.074-.035-.148-.082-.223-.121-.168-.082-.32-.184-.476-.285-.059-.04-.117-.086-.176-.125a3.967 3.967 0 0 1-.504-.422 4.388 4.388 0 0 1-.238-.227c-.098-.11-.184-.222-.278-.332a2.939 2.939 0 0 1-.293-.402 12.794 12.794 0 0 1-.23-.39c-.062-.114-.129-.231-.184-.348-.09-.2-.175-.399-.246-.602-.015-.04-.03-.074-.043-.113l-.136-.461c-.047-.18-.09-.36-.133-.54l-.094-.382c-.004-.024-.02-.04-.027-.059m1.96.578v.54c0 .054.005.113.005.167v.012c.003 0 .007.004.011.012a.495.495 0 0 0 .133.012l.606.011.668.012c.039 0 .078-.008.113.016.004.023.008.047.008.074l.011.547.016.789c0 .039-.004.078.016.113.015.004.027.008.039.004.289 0 .578.012.863-.016.074-.007.113-.039.125-.117a.636.636 0 0 0 .012-.12v-1.067c0-.047 0-.094.004-.14 0-.02.011-.04.015-.06a.322.322 0 0 1 .145-.03l.441-.012h.82c.032 0 .067.007.106-.016l.004-.11-.004-.82c0-.027.012-.054-.016-.082-.015 0-.035-.004-.054-.004l-1.387-.023c-.024 0-.047-.004-.074-.008v-1.398c0-.036.004-.07-.012-.102-.098-.008-.191-.016-.285-.016l-.735-.015c-.003 0-.003 0-.007.004-.004 0-.004.004-.016.011-.004.098 0 .2-.004.301v.613l.004.313-.004.316c-.035 0-.062.004-.09.004h-1.367c-.031 0-.066-.008-.102.016-.011.082-.003.168-.007.27Zm0 0"/><path fill="red" d="M16.281 18.48v-.625c0-.035-.008-.074-.008-.109l-.003-.012c.023-.09-.024-.18 0-.265.003-.012.003-.02.003-.032-.023-.156-.003-.312-.011-.468 0-.04-.008-.082-.012-.121-.004-.024-.008-.051-.004-.075.012-.105-.004-.207-.004-.308.004-.106 0-.207 0-.313v-.308c.004-.047.008-.09.008-.133a.095.095 0 0 0 0-.047.35.35 0 0 1 .008-.156c.004-.012.008-.028.004-.04-.032-.09.008-.179.004-.269-.008-.086-.004-.176-.004-.261v-.274c0-.02.004-.039.008-.059a.12.12 0 0 0 0-.074.35.35 0 0 1 .003-.168.2.2 0 0 0 0-.117.151.151 0 0 1 0-.101.187.187 0 0 0 0-.114.175.175 0 0 1-.003-.11.187.187 0 0 0 .003-.112.343.343 0 0 1-.007-.141c.004-.02 0-.043.004-.063 0-.023 0-.043.003-.066a.318.318 0 0 0 0-.148c-.003-.02-.011-.04-.007-.055.007-.066.02-.129 0-.195-.004-.016.007-.036.011-.055.008-.055-.004-.106-.011-.156-.004-.055.03-.11.011-.16-.023-.051.008-.102-.007-.157-.012-.047 0-.097 0-.148.003-.012.003-.02.003-.028-.023-.128-.007-.257-.011-.386 0-.02 0-.04.004-.055a.154.154 0 0 0 .004-.094c-.008-.03-.008-.062-.008-.093v-.48c0-.02.004-.04 0-.056a.746.746 0 0 1 .011-.308.134.134 0 0 0-.003-.055.286.286 0 0 1 .003-.14.18.18 0 0 0 0-.102c-.007-.035-.003-.066 0-.102.008-.03 0-.066-.003-.101 0-.031-.008-.063 0-.094.011-.047.011-.09.011-.137a.854.854 0 0 1 .012-.14.744.744 0 0 0 0-.246c-.02-.075-.008-.149-.012-.223 0-.027.016-.047.04-.063.05-.027.097-.054.16-.066a.287.287 0 0 1 .082 0c.074.012.132.02.187-.004.027 0 .055 0 .094.004.031.012.043.008.058-.004.032 0 .063-.004.094-.004l2.195.004c.266.004.528.012.793.02.805.027 1.532.289 2.184.754.48.34.871.761 1.172 1.261.23.383.39.793.48 1.23.02.095.04.188.051.294-.008.043-.016.074-.023.105l-.125.395a4.57 4.57 0 0 1-.23.578c-.09.183-.173.375-.274.555a6.263 6.263 0 0 1-.934 1.293 2.594 2.594 0 0 1-.32.332c-.082.078-.168.148-.254.222l-.129.11c-.098.078-.195.16-.297.23a6.896 6.896 0 0 1-.355.23c-.153.094-.305.192-.461.274a8.689 8.689 0 0 1-.578.277c-.246.114-.496.211-.754.293-.192.063-.38.133-.575.184a12.029 12.029 0 0 1-1.335.258l-.188.023c-.082.012-.16.028-.242.031-.102.008-.207.032-.309.024-.011-.004-.027 0-.039.004-.054.015-.11.011-.168.011m1.442-5.05-.016.086a.59.59 0 0 0 .066.414c.118.203.301.3.524.324a.525.525 0 0 0 .355-.098.781.781 0 0 0 .309-.48.66.66 0 0 0-.09-.336.625.625 0 0 0-.23-.242.666.666 0 0 0-.457-.07.55.55 0 0 0-.344.195.587.587 0 0 0-.117.207m2.648 1.793c.004-.028.008-.055.008-.082a.61.61 0 0 0-.277-.59.333.333 0 0 0-.204-.067l-.222-.004a.409.409 0 0 0-.258.102c-.063.05-.121.11-.176.172a.316.316 0 0 0-.082.203c0 .07 0 .14.004.207a.634.634 0 0 0 .063.238c.085.164.238.25.418.286a.59.59 0 0 0 .234.003.588.588 0 0 0 .277-.105.606.606 0 0 0 .215-.363m.34-1.243c.152.208.351.301.605.274a.513.513 0 0 0 .344-.172.625.625 0 0 0 .16-.617.543.543 0 0 0-.36-.406.649.649 0 0 0-.562.046.477.477 0 0 0-.234.274c-.012.035-.016.07-.023.11a.686.686 0 0 0 .07.491m-.426-1.46c.086-.149.102-.305.086-.473a.517.517 0 0 0-.207-.356.661.661 0 0 0-.312-.125.553.553 0 0 0-.543.184.684.684 0 0 0-.145.352.63.63 0 0 0 .047.34.62.62 0 0 0 .496.359.434.434 0 0 0 .188-.004.634.634 0 0 0 .39-.277Zm0 0"/><path fill="#b90001" d="M8.258 12.824c.012.016.027.031.031.055l.094.383.133.539c.043.152.09.308.136.46.012.04.028.075.043.114.07.203.157.402.246.602.055.117.122.234.184.347.074.133.152.262.23.39.086.141.184.278.293.403.094.11.18.223.278.332.074.078.156.153.238.227a3.97 3.97 0 0 0 .504.422c.059.039.117.086.176.125.156.101.308.203.476.285.075.039.149.086.223.12.207.095.414.188.625.267.074.023.148.054.219.082.09.03.18.058.27.085l.64.16c.2.048.398.087.598.122.156.027.312.043.464.062l.391.055h.086l.168.016c.031.003.062.003.094.003.113.004.226-.007.34.016.007.004.015.004.027.004.168 0 .34.004.508-.004.09-.004.18-.016.28-.008.024.043.052.063.087.067.055.008.11.03.168.008.008-.004.023.003.035.003.023 0 .043 0 .066-.003a.762.762 0 0 0 .09-.008h.367c.028 0 .059 0 .086.008.043.011.09.011.137.011h.969c.031 0 .07-.008.09.024-.008.007-.012.007-.012.007-.098 0-.191.028-.29.008-.023-.004-.05.004-.073.004-.043.004-.082.012-.121.016h-.239a.58.58 0 0 0-.082.008c-.035.004-.07.007-.101.007-.063.004-.125 0-.188.004-.058 0-.113-.004-.172.012a.129.129 0 0 1-.054 0c-.051-.016-.106-.012-.157-.012-.129-.004-.254 0-.379-.004a.333.333 0 0 1-.09-.011 1.35 1.35 0 0 1-.132-.055.236.236 0 0 0-.117-.027c-.047 0-.094-.008-.141-.012-.027-.004-.055-.004-.082-.004a3.188 3.188 0 0 0-.273 0c-.047 0-.094.012-.141.012-.05 0-.098-.012-.149-.012-.09-.004-.183 0-.273 0-.023 0-.05 0-.074-.004-.063-.02-.125-.015-.188-.015h-.379c-.082 0-.168-.008-.25.015-.02.004-.039.004-.058.004h-.328c-.11 0-.22-.004-.328 0-.11.004-.22-.023-.329-.004a.067.067 0 0 1-.039 0c-.07-.023-.14-.015-.214-.015-.024 0-.047-.004-.075-.008-.035-.004-.074-.012-.11-.012-.062 0-.128-.004-.19 0-.047.004-.09.016-.137.016-.051 0-.102-.012-.149-.016-.097-.012-.195.023-.289 0-.015-.004-.03.004-.047.008a.553.553 0 0 1-.226 0c-.012-.004-.031-.008-.043-.004-.07.02-.137.012-.207.016-.04 0-.07.02-.09.058-.035.063-.074.121-.113.184-.016.023-.031.047-.028.082-.066.093-.12.183-.187.265-.078.094-.133.2-.219.286-.066.117-.164.214-.238.324a.277.277 0 0 1-.04.054c-.112.13-.21.274-.308.414l-.289.395-.277.355-.215.297c-.047.07-.094.141-.145.207l-.293.383-.324.446c-.015.023-.031.042-.027.07a1.766 1.766 0 0 1-.617-.133c-.032-.012-.07-.023-.106-.035-.011-.008-.027-.012-.039-.02-.074-.066-.18-.082-.246-.164a.866.866 0 0 1-.23-.199 1.882 1.882 0 0 1-.41-.762 1.293 1.293 0 0 1-.063-.472c.008-.121.02-.239.039-.356l.215-1.234.172-1.012.148-.828.172-1L7.86 15l.204-1.129.195-1.047m3.789 5.543h.055c.02 0 .039 0 .054-.008.012-.004.02-.015.024-.027.004-.02-.012-.027-.028-.035-.011-.004-.023-.004-.035-.004-.023.004-.043.008-.066.008-.031-.051-.078-.07-.137-.067a.166.166 0 0 1-.043-.007.349.349 0 0 0-.168 0 .237.237 0 0 1-.074 0c-.047-.012-.086.007-.129.02-.016.003-.023.03-.012.046.016.023.035.031.063.035.16.02.316.047.496.04Zm0 0"/><path fill="#c40001" d="M18.355 18.594c-.027-.028-.066-.02-.097-.02h-.969c-.047 0-.094 0-.137-.012-.027-.007-.058-.007-.086-.007H16.7c-.031.004-.062.008-.09.008-.023.003-.043.003-.066.003-.012 0-.027-.007-.035-.003-.059.023-.113 0-.168-.008-.035-.004-.063-.024-.078-.067.004-.008.008-.008.015-.008.063 0 .118.004.172-.011.012-.004.028-.008.04-.004.1.008.206-.02.308-.024.082-.004.16-.02.242-.03l.188-.024a12.024 12.024 0 0 0 1.336-.258c.195-.05.382-.121.574-.184.258-.082.508-.18.754-.293.195-.086.386-.175.578-.277.156-.082.308-.18.46-.273.122-.075.239-.149.356-.23.102-.071.195-.153.297-.231.043-.036.086-.07.129-.11.086-.074.172-.144.254-.222.101-.094.203-.188.289-.297.008-.012.02-.024.031-.035a6.263 6.263 0 0 0 .934-1.293c.101-.18.183-.372.273-.555a4.57 4.57 0 0 0 .23-.578c.044-.133.087-.266.126-.395l.023-.097c.031.125.059.253.082.382l.125.692.176 1.023.258 1.473.14.836.18 1.031.2 1.168c.03.195.062.39.085.59.02.172.031.344.028.516a1.245 1.245 0 0 1-.192.652 3.693 3.693 0 0 1-.203.3 1.723 1.723 0 0 1-.809.52c-.027-.043-.043-.082-.066-.113-.055-.082-.117-.16-.176-.242l-.285-.399-.184-.258-.144-.21-.207-.29-.129-.171-.383-.536c-.047-.07-.094-.14-.144-.207-.07-.09-.137-.18-.2-.273-.09-.133-.171-.27-.265-.398l-.211-.29c-.05-.07-.106-.14-.16-.21a.084.084 0 0 0-.055-.04c-.012-.039-.035-.05-.066-.046-.137 0-.27-.012-.407.007-.011 0-.027-.004-.043-.004-.03-.003-.062-.007-.093-.007h-.887c-.024 0-.05 0-.074.004-.067.02-.137.015-.207.015h-1.043c-.035 0-.07-.008-.106.02Zm0 0"/><path fill="#b40101" d="M18.348 18.598a.168.168 0 0 1 .062 0c.047.007.082.015.117.015h2.809c.023 0 .039.012.05.032l.16.21.212.29c.094.128.176.265.265.398.063.094.13.184.2.273.05.067.097.137.144.207l.383.536.129.171.207.29.144.21.184.258.285.399.176.242c.023.031.04.07.059.113-.094.047-.196.063-.297.082a1.67 1.67 0 0 1-1.317-.379c-.074-.062-.152-.12-.218-.187-.11-.11-.227-.2-.332-.309l-.313-.312-.375-.383c-.074-.07-.152-.137-.227-.207a5.572 5.572 0 0 1-.214-.215l-.727-.719-.5-.5c-.027-.023-.047-.05-.074-.086-.012-.007-.02-.007-.024-.004a.124.124 0 0 1-.054 0l-.157-.015c-.046 0-.093.004-.14-.004a2.527 2.527 0 0 0-.422-.035c-.176.004-.352 0-.527.004-.094 0-.192-.012-.29.007-.015.004-.03-.003-.046-.003-.106 0-.207-.004-.309.003-.035 0-.07.008-.101-.003-.024-.004-.047-.004-.067-.004a2.586 2.586 0 0 0-.246 0c-.035 0-.066.007-.102.007-.062 0-.128-.015-.187-.007-.066.011-.133-.016-.195.011-.059-.007-.114-.007-.149-.074-.031-.058-.062-.113-.066-.183-.004-.063-.043-.102-.11-.11-.02-.004-.043-.004-.066-.004-.02 0-.043 0-.062-.004-.051-.015-.102-.015-.153-.015h-.82c-.067 0-.137-.016-.203-.016-.07-.004-.14.02-.215.016-.188-.004-.379 0-.566 0h-2.536c-.093 0-.16.027-.214.105-.036.051-.067.106-.122.14-.003-.03.012-.054.028-.077.039-.063.078-.121.113-.184.02-.039.05-.058.09-.058.07-.004.137.003.207-.016.012-.004.031 0 .043.004a.553.553 0 0 0 .226 0c.016-.004.032-.012.047-.008.094.023.192-.012.29 0 .046.004.097.016.148.016.047 0 .09-.012.137-.016.062-.004.128 0 .19 0 .036 0 .075.008.11.012.028.004.051.008.075.008.074 0 .144-.008.214.015a.067.067 0 0 0 .04 0c.109-.02.218.008.328.004.109-.004.218 0 .328 0h.328c.02 0 .039 0 .058-.004.082-.023.168-.015.25-.015h.38c.062 0 .124-.004.187.015.023.004.05.004.074.004h.273c.051 0 .098.012.149.012.047 0 .094-.012.14-.012a3.196 3.196 0 0 1 .356.004c.047.004.094.012.14.012.044 0 .083.008.118.027.043.02.086.04.133.055a.333.333 0 0 0 .09.011l.378.004c.051 0 .106-.004.157.012.02.004.039.004.054 0 .059-.016.114-.012.172-.012l.188-.004a.958.958 0 0 0 .101-.007.584.584 0 0 1 .082-.008h.239c.039-.004.078-.012.12-.016.024 0 .051-.008.075-.004.098.02.191-.008.289-.008 0 0 .004 0 .012-.007Zm0 0"/><path fill="#a80101" d="M11.191 18.844c.055-.04.086-.094.121-.145.055-.078.122-.105.215-.105h3.102c.074.004.144-.02.215-.016.066 0 .136.016.203.016h.82c.051 0 .102 0 .153.015.02.004.043.004.062.004.023 0 .047 0 .066.004.067.008.106.047.11.11.004.07.035.125.066.183.035.067.09.067.149.074.062-.027.129 0 .195-.011.059-.008.125.007.187.007.036 0 .067-.007.102-.007a2.586 2.586 0 0 1 .246 0c.02 0 .043 0 .067.004.03.011.066.003.101.003.102-.007.203-.003.309-.003.015 0 .03.007.047.003.097-.02.195-.007.289-.007l.527-.004c.144 0 .281.011.422.035.047.008.094.004.14.004l.149.012c-.031.007-.07.007-.106.007h-6.316c-.008 0-.02.004-.027 0a.127.127 0 0 0-.11.043l-.383.38-1.933 1.917a8.947 8.947 0 0 1-.395.375c-.117.11-.234.219-.363.313-.125.097-.27.164-.418.207a1.945 1.945 0 0 1-.566.078c-.012-.027.004-.047.02-.07l.323-.446.293-.383c.051-.066.098-.136.145-.207l.215-.296.277-.356.29-.394c.097-.141.195-.286.308-.415a.277.277 0 0 0 .039-.054c.074-.11.172-.207.238-.324.086-.086.14-.192.219-.286.066-.082.121-.171.187-.265Zm0 0"/><path fill="#f60002" d="M16.742 9.492c-.047.024-.105.016-.172.004.051-.004.11-.004.172-.004Zm.153 0c-.008.012-.02.016-.043.004.011-.004.023-.004.043-.004Zm0 0"/><path fill="#a80101" d="M19.32 19.027c0-.007.008-.007.012-.004.004.004-.004.004-.012.004Zm0 0"/><path fill="#fefdfd" d="M10.223 13.39c.004-.093-.004-.18.007-.261.036-.024.07-.016.102-.016h1.367c.028 0 .055-.004.09-.004.004-.109.004-.214.004-.316l-.004-.313v-.613c.004-.101 0-.203.004-.3.012-.008.012-.012.016-.012.004-.004.004-.004.007-.004l.735.015c.094 0 .187.008.285.016.016.031.012.066.012.102v1.398c.027.004.05.008.074.008l1.387.023c.02 0 .039.004.054.004.028.028.016.055.016.082l.004.82c0 .04-.004.075-.004.11-.04.023-.074.016-.106.016h-.82c-.148 0-.297.007-.441.011a.322.322 0 0 0-.145.031c-.004.02-.015.04-.015.06-.004.046-.004.093-.004.14v1.066c0 .04-.004.082-.012.121-.012.078-.05.11-.125.117-.285.028-.574.016-.863.016-.012.004-.024 0-.04-.004-.019-.035-.015-.074-.015-.113l-.016-.79-.011-.546c0-.027-.004-.05-.008-.074-.035-.024-.074-.016-.113-.016l-.668-.012-.606-.011c-.047 0-.09 0-.133-.012-.004-.008-.008-.012-.011-.012v-.012l-.004-.168Zm7.504.036a.54.54 0 0 1 .113-.203.55.55 0 0 1 .344-.196.666.666 0 0 1 .457.07c.101.06.171.141.23.243a.66.66 0 0 1 .086.246c.004.027.008.062.004.09a.781.781 0 0 1-.309.48.525.525 0 0 1-.355.098.646.646 0 0 1-.524-.324.59.59 0 0 1-.066-.414c.004-.028.012-.059.02-.09Zm2.64 1.804a.586.586 0 0 1-.21.356.588.588 0 0 1-.278.105.59.59 0 0 1-.234-.003c-.18-.036-.332-.122-.418-.286a.634.634 0 0 1-.063-.238c-.004-.066-.004-.137-.004-.207a.316.316 0 0 1 .082-.203c.055-.063.113-.121.176-.172a.409.409 0 0 1 .258-.102c.074 0 .148.004.222.004.079 0 .145.024.204.067a.61.61 0 0 1 .277.59.406.406 0 0 1-.012.09Zm.344-1.253a.673.673 0 0 1-.07-.489c.007-.039.011-.074.023-.11a.477.477 0 0 1 .234-.273.649.649 0 0 1 .563-.046c.191.066.312.21.36.406a.625.625 0 0 1-.16.617.513.513 0 0 1-.345.172.62.62 0 0 1-.605-.277Zm-.426-1.45a.653.653 0 0 1-.39.27.434.434 0 0 1-.188.004.62.62 0 0 1-.496-.36.63.63 0 0 1-.047-.34.684.684 0 0 1 .145-.351.553.553 0 0 1 .543-.184.662.662 0 0 1 .312.125c.117.09.188.207.207.356a.797.797 0 0 1-.086.48Zm0 0"/><path fill="#b40101" d="M12.035 18.367c-.168.008-.324-.02-.484-.039-.028-.004-.047-.012-.063-.035-.011-.016-.004-.043.012-.047.043-.012.082-.031.129-.02.023.004.05.004.074 0a.349.349 0 0 1 .168 0 .166.166 0 0 0 .043.008c.059-.004.106.016.137.067.023 0 .043-.004.066-.008.012 0 .024 0 .035.004.016.008.032.016.028.035-.004.012-.012.023-.024.027-.015.008-.035.008-.054.008h-.067Zm0 0"/><path fill="#b90001" d="m21.332 18.605-2.805.008c-.035 0-.07-.008-.109-.015.023-.032.059-.024.094-.024h1.043c.07 0 .14.004.207-.015.023-.004.05-.004.074-.004h.887c.03 0 .062.004.093.007.016 0 .032.004.043.004.137-.02.27-.007.407-.007.03-.004.054.007.066.046Zm-10.21-.246h-1.43v-.234h1.43Zm0 0"/><path fill="#b90001" d="M12.54 18.36h-1.43v-.235h1.43Zm0 0"/><path fill="red" d="M16.238 9.89v-.374h.063v.375Zm0 0"/><path fill="red" d="M16.238 10.266v-.38h.063v.38Zm0 0"/><path fill="red" d="M16.238 10.637v-.375h.063v.375Zm0 .375v-.375h.063v.375Zm0 0"/><path fill="red" d="M16.238 11.387v-.38h.063v.38Zm0 0"/><path fill="red" d="M16.238 11.758v-.375h.063v.375Zm0 0"/><path fill="red" d="M16.238 12.133v-.38h.063v.38Zm0 0"/><path fill="red" d="M16.238 12.508v-.38h.063v.38Zm0 0"/><path fill="red" d="M16.238 12.879v-.375h.063v.375Zm0 0"/><path fill="red" d="M16.238 13.254v-.379h.063v.379Zm0 0"/><path fill="red" d="M16.238 13.629v-.379h.063v.379Zm0 0"/><path fill="red" d="M16.238 14v-.375h.063V14Zm0 0"/><path fill="red" d="M16.238 14.375v-.379h.063v.379Zm0 0"/><path fill="red" d="M16.238 14.746v-.375h.063v.375Zm0 .375v-.375h.063v.375Zm0 0"/><path fill="red" d="M16.238 15.496v-.379h.063v.38Zm0 0"/><path fill="red" d="M16.238 15.867v-.375h.063v.375Zm0 0"/><path fill="red" d="M16.238 16.242v-.379h.063v.38Zm0 0"/><path fill="red" d="M16.238 16.617v-.379h.063v.38Zm0 0"/><path fill="red" d="M16.238 16.988v-.375h.063v.375Zm0 0"/><path fill="red" d="M16.238 17.363v-.379h.063v.38Zm0 0"/><path fill="red" d="M16.238 17.734v-.375h.063v.375Zm0 .375v-.375h.063v.375Zm0 0"/><path fill="red" d="M16.238 18.484v-.379h.063v.38Zm.711-8.87h-.722v-.118h.722Zm0 0"/><path fill="red" d="M17.668 9.613h-.727v-.117h.727Zm-1.262.735v.726h-.12v-.726Zm0 0"/><path fill="red" d="M16.406 9.633v.722h-.12v-.722Zm0 0"/><path fill="#b40101" d="M16.29 18.617v.41h-.067v-.41Zm0 0"/><path fill="#fed402" d="M16.543 19.074h-.277v-.043h.277Zm.277 0h-.277v-.043h.277Zm0 0"/><path fill="#fed402" d="M17.094 19.074h-.278v-.043h.278Zm0 0"/><path fill="#fed402" d="M17.371 19.074h-.281v-.043h.281Zm0 0"/><path fill="#fed402" d="M17.645 19.074h-.278v-.043h.278Zm0 0"/><path fill="#fed402" d="M17.918 19.074h-.277v-.043h.277Zm.277 0h-.277v-.043h.277Zm0 0"/><path fill="#fed402" d="M18.469 19.074h-.278v-.043h.278Zm.277 0h-.277v-.043h.277Zm0 0"/><path fill="#fed402" d="M19.02 19.074h-.278v-.043h.278Zm0 0"/><path fill="#fed402" d="M19.293 19.074h-.277v-.043h.277Zm0 0"/><path fill="#b40101" d="M16.535 19.027h-.277v-.047h.277Zm0 0"/><path fill="#b40101" d="M16.809 19.027h-.278v-.047h.278Zm0 0"/><path fill="#b40101" d="M17.086 19.027h-.277v-.047h.277Zm0 0"/><path fill="#b40101" d="M17.36 19.027h-.278v-.047h.277Zm0 0"/><path fill="#b40101" d="M17.633 19.027h-.278v-.047h.278Zm.277 0h-.277v-.047h.277Zm0 0"/><path fill="#b40101" d="M18.184 19.027h-.278v-.047h.278ZM18.46 19.027h-.276v-.047h.277Zm0 0"/><path fill="#b40101" d="M18.734 19.027h-.277v-.047h.277Zm0 0"/><path fill="#b40101" d="M19.012 19.027h-.282v-.047h.282Zm0 0"/><path fill="#b40101" d="M19.285 19.027h-.277v-.047h.277Zm-2.762-.047h-.277v-.046h.277Zm.278 0h-.278v-.046h.278Zm0 0"/><path fill="#b40101" d="M17.074 18.98h-.277v-.046h.277Zm0 0"/><path fill="#b40101" d="M17.352 18.98h-.282v-.046h.282Zm0 0"/><path fill="#b40101" d="M17.625 18.98h-.277v-.046h.277Zm0 0"/><path fill="#b40101" d="M17.898 18.98h-.277v-.046h.277Zm.278 0h-.278v-.046h.278Zm0 0"/><path fill="#b40101" d="M18.45 18.98h-.278v-.046h.277Zm.277 0h-.278v-.046h.278Zm0 0"/><path fill="#b40101" d="M19 18.98h-.277v-.046H19Zm0 0"/><path fill="#b40101" d="M19.277 18.98h-.28v-.046h.28Zm-2.957-.363.012.38h-.062l-.012-.38Zm0 0"/><path fill="#b40101" d="M16.516 18.98h-.278v-.046h.278Zm0 0"/><path fill="#b40101" d="M16.79 18.98h-.278v-.046h.277Zm.276 0h-.277v-.046h.277Zm0 0"/><path fill="#b40101" d="M17.34 18.98h-.278v-.046h.278Zm0 0"/><path fill="#b40101" d="M17.613 18.98h-.277v-.046h.277Zm.278 0h-.278v-.046h.278Zm0 0"/><path fill="#b40101" d="M18.164 18.98h-.277v-.046h.277Zm.277 0h-.277v-.046h.277Zm0 0"/><path fill="#b40101" d="M18.715 18.98h-.278v-.046h.278Zm.277 0h-.277v-.046h.277Zm0 0"/><path fill="#b40101" d="M19.266 18.98h-.278v-.046h.278Zm0 0"/><path fill="#c40001" d="M16.496 18.629h-.27v-.043h.27ZM16.766 18.629h-.27v-.043h.27Zm0 0"/><path fill="#c40001" d="M17.031 18.629h-.27v-.043h.27Zm0 0"/><path fill="#c40001" d="M17.3 18.629h-.273v-.043h.274Zm0 0"/><path fill="#c40001" d="M17.566 18.629h-.27v-.043h.27Zm0 0"/><path fill="#c40001" d="M17.832 18.629h-.27v-.043h.27Zm.27 0h-.27v-.043h.27Zm0 0"/><path fill="#c40001" d="M18.367 18.629h-.27v-.043h.27Zm.27 0h-.27v-.043h.27Zm0 0"/><path fill="#c40001" d="M18.902 18.629h-.27v-.043h.27Zm0 0"/><path fill="#c40001" d="M19.168 18.629h-.27v-.043h.27Zm.27 0h-.27v-.043h.27Zm0 0"/><path fill="#c40001" d="M19.703 18.629h-.27v-.043h.27ZM19.973 18.629h-.27v-.043h.27Zm0 0"/><path fill="#c40001" d="M20.238 18.629h-.27v-.043h.27Zm0 0"/><path fill="#c40001" d="M20.508 18.629h-.274v-.043h.274Zm0 0"/><path fill="#c40001" d="M20.773 18.629h-.27v-.043h.27Zm0 0"/><path fill="#c40001" d="M21.04 18.629h-.27v-.043h.27Zm.269 0h-.27v-.043h.27Zm0 0"/><path fill="#c40001" d="M21.574 18.629h-.27v-.043h.27Zm-4.949-.04h-.27v-.046h.27Zm0 0"/><path fill="#c40001" d="M16.89 18.59h-.269v-.047h.27Zm0 0"/><path fill="#c40001" d="M17.16 18.59h-.27v-.047h.27Zm0 0"/><path fill="#c40001" d="M17.426 18.59h-.27v-.047h.27Zm0 0"/><path fill="#c40001" d="M17.691 18.59h-.27v-.047h.27Zm.27 0h-.27v-.047h.27Zm0 0"/><path fill="#c40001" d="M18.227 18.59h-.27v-.047h.27Zm.27 0h-.27v-.047h.27Zm0 0"/><path fill="#c40001" d="M18.762 18.59h-.27v-.047h.27Zm0 0"/><path fill="#c40001" d="M19.027 18.59h-.27v-.047h.27Zm.27 0h-.27v-.047h.27Zm0 0"/><path fill="#c40001" d="M19.563 18.59h-.27v-.047h.27Zm.269 0h-.27v-.047h.27Zm0 0"/><path fill="#c40001" d="M20.098 18.59h-.27v-.047h.27Zm.27 0h-.27v-.047h.27Zm0 0"/><path fill="#c40001" d="M20.633 18.59h-.27v-.047h.27Zm0 0"/><path fill="#c40001" d="M20.898 18.59h-.27v-.047h.27Zm.27 0h-.27v-.047h.27Zm0 0"/><path fill="#c40001" d="M21.434 18.59h-.27v-.047h.27Zm0 0"/><path fill="#c40001" d="M21.703 18.59h-.27v-.047h.27Zm-5.48.027v-.125h1.03v.125Zm0 0"/><path fill="#b70001" d="M12.074 18.633h-.379v-.063h.38Zm0 0"/><path fill="#b70001" d="M12.453 18.633h-.383v-.063h.383Zm0 0"/><path fill="#b70001" d="M12.828 18.633h-.379v-.063h.38Zm0 0"/><path fill="#b70001" d="M13.203 18.633h-.379v-.063h.38Zm0 0"/><path fill="#b70001" d="M13.582 18.633h-.383v-.063h.383Zm0 0"/><path fill="#b70001" d="M13.957 18.633h-.379v-.063h.379Zm0 0"/><path fill="#b70001" d="M14.332 18.633h-.379v-.063h.379Zm.379 0h-.379v-.063h.379Zm0 0"/><path fill="#b70001" d="M15.086 18.633h-.379v-.063h.379Zm0 0"/><path fill="#b70001" d="M15.465 18.633h-.383v-.063h.383Zm0 0"/><path fill="#b70001" d="M15.84 18.633h-.38v-.063h.38Zm0 0"/><path fill="#b70001" d="M16.215 18.633h-.38v-.063h.38Zm-4.203-.059h-.383v-.062h.383Zm0 0"/><path fill="#b70001" d="M12.387 18.574h-.38v-.062h.38Zm0 0"/><path fill="#b70001" d="M12.762 18.574h-.38v-.062h.38Zm0 0"/><path fill="#b70001" d="M13.14 18.574h-.382v-.062h.383Zm0 0"/><path fill="#b70001" d="M13.516 18.574h-.38v-.062h.38Zm0 0"/><path fill="#b70001" d="M13.89 18.574h-.378v-.062h.379Zm.38 0h-.38v-.062h.38Zm0 0"/><path fill="#b70001" d="M14.645 18.574h-.38v-.062h.38Zm0 0"/><path fill="#b70001" d="M15.023 18.574h-.382v-.062h.382Zm0 0"/><path fill="#b70001" d="M15.398 18.574h-.378v-.062h.378Zm0 0"/><path fill="#b70001" d="M15.773 18.574h-.378v-.062h.378Zm0 0"/><path fill="#b70001" d="M16.152 18.574h-.382v-.062h.382Zm-4.148.059h-1.215v-.2h1.215Zm.246-.211h-1.215v-.2h1.215Zm-2.738 2.68-.278.363-.062-.043.277-.367Zm0 0"/><path fill="#b70001" d="m9.785 20.738-.277.367-.059-.046.278-.364Zm0 0"/><path fill="#b70001" d="m10.063 20.379-.282.363-.058-.043.277-.367Zm0 0"/><path fill="#b70001" d="m10.336 20.016-.277.367-.063-.047.281-.363Zm0 0"/><path fill="#b70001" d="m10.61 19.656-.278.364-.059-.047.278-.364Zm0 0"/><path fill="#b70001" d="m10.887 19.293-.278.367-.062-.047.277-.367Zm0 0"/><path fill="#b70001" d="m11.16 18.934-.277.363-.059-.047.278-.363Zm0 0"/><path fill="#b70001" d="m11.438 18.57-.278.367-.062-.046.277-.368Zm0 0"/></svg>